<?xml version="1.0" standalone="no"?>
<!DOCTYPE svg PUBLIC "-//W3C//DTD SVG 20010904//EN"
 "http://www.w3.org/TR/2001/REC-SVG-20010904/DTD/svg10.dtd">
<svg version="1.0" xmlns="http://www.w3.org/2000/svg"
 width="840.000000pt" height="904.000000pt" viewBox="0 0 840.000000 904.000000"
 preserveAspectRatio="xMidYMid meet">

<g transform="translate(0.000000,904.000000) scale(0.100000,-0.100000)"
fill="#000000" stroke="none">
<path d="M5585 2103 c-121 -44 -196 -110 -249 -222 -28 -60 -31 -75 -31 -166
0 -81 4 -111 23 -158 33 -81 116 -168 200 -209 63 -31 73 -33 177 -33 105 0
113 2 174 33 80 42 142 105 183 189 57 116 50 274 -17 389 -35 60 -129 140
-195 165 -77 30 -199 35 -265 12z"/>
<path d="M2393 2085 c-107 -33 -204 -118 -255 -223 -31 -64 -33 -73 -33 -182
0 -111 1 -118 34 -185 132 -268 478 -324 680 -110 99 104 135 229 107 374 -29
157 -126 271 -273 322 -66 22 -195 25 -260 4z"/>
</g>
</svg>
